<svg width="300" height="300" viewBox="0 0 300 300" fill="none" xmlns="http://www.w3.org/2000/svg">
<rect width="300" height="300" rx="150" fill="#4F46E5"/>
<path d="M141.861 157.722C137.374 163.331 132.391 169.487 128.895 173.792C125.009 162.105 130.2 145.774 135.991 133.565C137.4 141.157 139.33 149.192 141.861 157.722Z" fill="#F2C94C"/>
<path d="M169.2 114.47C174.965 120 180.13 130.331 176.243 146.478C172.748 146.191 167.791 145.8 163.304 145.383C165.861 133.905 167.791 123.652 169.2 114.47Z" fill="#F2994A"/>
<path opacity="0.2" d="M156.809 171.992C189.026 48.1835 162.522 37.6704 152.504 33.4443C142.487 49.253 115.983 90.3661 148.252 176.923L156.809 171.992Z" fill="url(#paint0_linear_80_5373)"/>
<path opacity="0.1" d="M147.313 164.87C179.557 41.0875 153.052 30.5744 143.009 26.3223C132.991 42.131 106.487 83.244 138.757 169.801L147.313 164.87Z" fill="url(#paint1_linear_80_5373)"/>
<path opacity="0.15" d="M148.252 176.923C115.983 90.3661 142.487 49.253 152.504 33.4443V174.47L148.252 176.923Z" fill="url(#paint2_linear_80_5373)"/>
<path opacity="0.1" d="M142.878 77.0354C142.878 84.5745 147.313 88.1224 152.791 84.9658C158.27 81.8093 162.705 73.1224 162.705 65.5832C162.705 58.0441 158.27 54.4963 152.791 57.6528C147.313 60.8093 142.878 69.4963 142.878 77.0354Z" fill="white"/>
<path opacity="0.1" d="M152.583 261.757C147.209 273.574 139.2 283.748 130.252 288.914C114.078 298.253 100.957 287.714 100.931 265.383C100.931 243.053 114.052 217.357 130.226 208.018C135.548 204.94 140.531 204.027 144.835 204.966C147.105 201.261 148.2 196.566 149.165 192.444C150.287 187.696 151.226 183.653 153.574 182.635C156.261 181.461 157.461 184.435 159.157 188.557C160.148 190.983 161.322 193.853 163.044 196.488C164.896 194.531 166.852 192.914 168.913 191.74C177.548 186.757 184.748 191.061 186.444 201.34C187.618 200.453 188.792 199.644 189.992 198.94C203.844 190.957 215.061 200.009 215.061 219.209C215.061 238.383 203.844 260.401 190.018 268.383C176.583 276.131 165.6 267.809 164.974 249.783C162.444 254.479 159.078 258.418 155.348 260.557C154.435 261.079 153.496 261.47 152.583 261.757Z" fill="url(#paint3_linear_80_5373)"/>
<path opacity="0.3" d="M118.8 119.531L48.1565 160.305L48.1304 197.114L112.513 159.94L118.748 161.975L118.8 119.531Z" fill="url(#paint4_linear_80_5373)"/>
<path d="M68.7131 166.775V156.783L42.0522 172.175V182.166L68.7131 166.775Z" fill="#F2C94C"/>
<path opacity="0.1" d="M100.618 138.966L85.1479 147.914V151.148L100.618 142.227V138.966Z" fill="white"/>
<path opacity="0.1" d="M100.617 145.436L72.6782 161.557V164.792L100.617 148.67V145.436Z" fill="white"/>
<path opacity="0.15" d="M100.618 151.905L64.4871 172.775V176.01L100.618 155.14V151.905Z" fill="white"/>
<path d="M104.426 140.14C104.426 143.166 106.226 144.6 108.443 143.322C110.661 142.044 112.461 138.548 112.461 135.522C112.461 132.496 110.661 131.061 108.443 132.34C106.226 133.618 104.426 137.114 104.426 140.14Z" fill="#F2C94C"/>
<path opacity="0.3" d="M179.713 67.5398L250.33 26.792L250.304 63.6007L185.922 100.749L179.687 109.983L179.713 67.5398Z" fill="url(#paint5_linear_80_5373)"/>
<path d="M257.843 41.1397V31.1484L231.183 46.5397V56.531L257.843 41.1397Z" fill="#F2994A"/>
<path opacity="0.15" d="M197.87 66.0262L213.339 57.1045V60.3393L197.87 69.261V66.0262Z" fill="white"/>
<path opacity="0.15" d="M197.844 72.4957L227.661 55.2783V58.5131L197.844 75.7305V72.4957Z" fill="white"/>
<path opacity="0.15" d="M197.844 78.9662L233.974 58.0967V61.3315L197.844 82.201V78.9662Z" fill="white"/>
<path d="M194.035 71.5835C194.035 74.6096 192.235 78.1053 190.017 79.3835C187.8 80.6618 186 79.227 186 76.2009C186 73.1748 187.8 69.6792 190.017 68.4009C192.261 67.1487 194.061 68.5574 194.035 71.5835Z" fill="#F2994A"/>
<path opacity="0.2" d="M189.104 106.826L231.287 82.4873V104.453L189.104 128.792V106.826Z" fill="url(#paint6_linear_80_5373)"/>
<path opacity="0.15" d="M220.487 93.9922L206.035 102.34V104.975L220.487 96.627V93.9922Z" fill="white"/>
<path opacity="0.15" d="M220.461 99.2871L193.435 114.887V117.548L220.461 101.948V99.2871Z" fill="white"/>
<path d="M222.704 94.7744C222.704 96.5744 223.774 97.4353 225.104 96.6788C226.435 95.9223 227.504 93.8353 227.504 92.0092C227.504 90.2092 226.435 89.3483 225.104 90.1049C223.774 90.8875 222.704 92.9744 222.704 94.7744Z" fill="#F2994A"/>
<path opacity="0.2" d="M63.8086 123.418L105.991 99.0791V121.044L63.8086 145.41V123.418Z" fill="url(#paint7_linear_80_5373)"/>
<path opacity="0.15" d="M95.1914 110.609L80.7393 118.957V121.592L95.1914 113.244V110.609Z" fill="white"/>
<path opacity="0.15" d="M95.1911 115.905L68.165 131.505V134.166L95.1911 118.566V115.905Z" fill="white"/>
<path d="M97.4087 111.392C97.4087 113.192 98.4783 114.052 99.8087 113.296C101.139 112.539 102.209 110.452 102.209 108.626C102.209 106.826 101.139 105.966 99.8087 106.722C98.4783 107.479 97.4087 109.592 97.4087 111.392Z" fill="#F2C94C"/>
<defs>
<linearGradient id="paint0_linear_80_5373" x1="114.906" y1="37.8339" x2="195.997" y2="178.326" gradientUnits="userSpaceOnUse">
<stop stop-color="white"/>
<stop offset="1" stop-color="white" stop-opacity="0"/>
</linearGradient>
<linearGradient id="paint1_linear_80_5373" x1="105.412" y1="30.7138" x2="186.504" y2="171.206" gradientUnits="userSpaceOnUse">
<stop stop-color="white"/>
<stop offset="1" stop-color="white" stop-opacity="0"/>
</linearGradient>
<linearGradient id="paint2_linear_80_5373" x1="130.028" y1="68.4693" x2="192.627" y2="181.421" gradientUnits="userSpaceOnUse">
<stop stop-color="white" stop-opacity="0"/>
<stop offset="1" stop-color="white"/>
</linearGradient>
<linearGradient id="paint3_linear_80_5373" x1="135.917" y1="204.736" x2="170.942" y2="265.418" gradientUnits="userSpaceOnUse">
<stop stop-color="white"/>
<stop offset="1" stop-color="white" stop-opacity="0"/>
</linearGradient>
<linearGradient id="paint4_linear_80_5373" x1="88.4489" y1="120.723" x2="79.3185" y2="194.775" gradientUnits="userSpaceOnUse">
<stop stop-color="white"/>
<stop offset="1" stop-color="white" stop-opacity="0"/>
</linearGradient>
<linearGradient id="paint5_linear_80_5373" x1="195.104" y1="52.8008" x2="231.569" y2="81.3517" gradientUnits="userSpaceOnUse">
<stop stop-color="white"/>
<stop offset="1" stop-color="white" stop-opacity="0"/>
</linearGradient>
<linearGradient id="paint6_linear_80_5373" x1="205.434" y1="97.3898" x2="214.947" y2="113.871" gradientUnits="userSpaceOnUse">
<stop stop-color="white"/>
<stop offset="1" stop-color="white" stop-opacity="0"/>
</linearGradient>
<linearGradient id="paint7_linear_80_5373" x1="80.1478" y1="114.002" x2="89.661" y2="130.483" gradientUnits="userSpaceOnUse">
<stop stop-color="white"/>
<stop offset="1" stop-color="white" stop-opacity="0"/>
</linearGradient>
</defs>
</svg>
